<?xml version="1.0" encoding="utf-8"?>
<svg xmlns="http://www.w3.org/2000/svg" viewBox="0 0 500 500" width="500px" height="500px" xmlns:bx="https://boxy-svg.com">
  <defs>
    <radialGradient gradientUnits="userSpaceOnUse" cx="251.622" cy="331.663" r="200" id="gradient-1" gradientTransform="matrix(0.629481, -0.004785, 0.004846, 0.637593, 91.648415, 79.583443)">
      <stop offset="0" style="stop-color: rgb(0, 61, 111);"/>
      <stop offset="1" style="stop-color: rgb(0, 116, 209);"/>
    </radialGradient>
    <linearGradient gradientUnits="userSpaceOnUse" x1="721.993" y1="709.982" x2="721.993" y2="843.169" id="gradient-2" gradientTransform="matrix(0.090652, -0.997949, 1.619936, 0.147767, -544.859238, 1312.690748)" spreadMethod="reflect">
      <stop offset="0" style="stop-color: rgb(0, 116, 209);"/>
      <stop offset="1" style="stop-color: rgb(0, 61, 111);"/>
    </linearGradient>
    <filter id="drop-shadow-filter-0" bx:preset="drop-shadow 1 0 0 8 0.7 rgba(0,0,0,0.3)" color-interpolation-filters="sRGB" x="-50%" y="-50%" width="200%" height="200%">
      <feGaussianBlur in="SourceAlpha" stdDeviation="8"/>
      <feOffset dx="0" dy="0"/>
      <feComponentTransfer result="offsetblur">
        <feFuncA id="spread-ctrl" type="linear" slope="1.4"/>
      </feComponentTransfer>
      <feFlood flood-color="rgba(0,0,0,0.3)"/>
      <feComposite in2="offsetblur" operator="in"/>
      <feMerge>
        <feMergeNode/>
        <feMergeNode in="SourceGraphic"/>
      </feMerge>
    </filter>
    <filter id="outline-filter-1" bx:preset="outline 1 1 #0000004f" color-interpolation-filters="sRGB" x="-50%" y="-50%" width="200%" height="200%">
      <feMorphology in="SourceAlpha" result="dilated" operator="dilate" radius="1"/>
      <feFlood flood-color="#0000004f" result="flood"/>
      <feComposite in="flood" in2="dilated" operator="in" result="outline"/>
      <feMerge>
        <feMergeNode in="outline"/>
        <feMergeNode in="SourceGraphic"/>
      </feMerge>
    </filter>
    <filter id="outline-filter-2" bx:preset="outline 1 1 #0000004f" color-interpolation-filters="sRGB" x="-50%" y="-50%" width="200%" height="200%">
      <feMorphology in="SourceAlpha" result="dilated" operator="dilate" radius="1"/>
      <feFlood flood-color="#0000004f" result="flood"/>
      <feComposite in="flood" in2="dilated" operator="in" result="outline"/>
      <feMerge>
        <feMergeNode in="outline"/>
        <feMergeNode in="SourceGraphic"/>
      </feMerge>
    </filter>
    <filter id="drop-shadow-filter-1" bx:preset="drop-shadow 1 0 0 8 0.6 rgba(0,0,0,0.3)" color-interpolation-filters="sRGB" x="-50%" y="-50%" width="200%" height="200%">
      <feGaussianBlur in="SourceAlpha" stdDeviation="8"/>
      <feOffset dx="0" dy="0"/>
      <feComponentTransfer result="offsetblur">
        <feFuncA id="spread-ctrl" type="linear" slope="1.2"/>
      </feComponentTransfer>
      <feFlood flood-color="rgba(0,0,0,0.3)"/>
      <feComposite in2="offsetblur" operator="in"/>
      <feMerge>
        <feMergeNode/>
        <feMergeNode in="SourceGraphic"/>
      </feMerge>
    </filter>
  </defs>
  <path d="M 51.036 55.14 C 50.976 55.222 50.875 55.576 50.825 55.919 C 50.775 56.272 50.634 57.452 50.523 58.534 C 50.413 59.612 50.252 61.539 50.171 62.823 C 50.08 64.094 50.01 66.668 50 68.524 L 50 71.905 L 50.161 73.369 C 50.252 74.178 50.372 75.175 50.433 75.592 C 50.493 76.004 50.704 77.205 50.896 78.264 C 51.087 79.315 51.429 80.91 51.65 81.798 C 51.872 82.684 52.173 83.773 52.304 84.218 C 52.445 84.662 52.807 85.798 53.119 86.741 C 53.421 87.685 54.015 89.316 54.427 90.365 C 54.84 91.412 55.373 92.664 55.605 93.14 C 55.846 93.619 56.55 94.962 57.174 96.128 C 57.798 97.295 58.764 99.019 59.328 99.962 C 59.881 100.909 60.787 102.338 61.34 103.144 C 61.894 103.948 62.648 105.015 63.02 105.515 C 63.393 106.014 63.956 106.764 64.278 107.18 C 64.59 107.595 65.093 108.233 65.395 108.593 C 65.697 108.955 67.015 110.431 68.323 111.873 C 69.621 113.317 71.875 115.669 73.314 117.101 C 74.753 118.531 76.323 120.036 76.796 120.446 C 77.259 120.854 78.466 121.888 79.472 122.747 C 80.478 123.606 81.897 124.779 82.622 125.358 C 83.356 125.936 84.594 126.93 85.379 127.569 C 86.174 128.206 87.562 129.278 88.468 129.946 C 89.383 130.614 90.732 131.594 91.486 132.125 C 92.231 132.656 93.66 133.643 94.656 134.318 C 95.652 134.993 97.413 136.174 98.58 136.944 C 99.738 137.713 101.458 138.84 102.404 139.448 C 103.34 140.057 104.497 140.8 104.97 141.101 C 105.433 141.401 106.932 142.393 108.29 143.304 C 109.639 144.215 110.907 145.081 111.105 145.233 C 111.298 145.382 112.204 146.019 113.115 146.651 C 114.028 147.279 115.477 148.315 116.335 148.952 C 117.194 149.589 118.35 150.477 118.903 150.927 C 119.456 151.374 120.634 152.348 121.519 153.091 C 122.405 153.832 123.763 155.038 124.538 155.765 C 125.313 156.497 126.342 157.45 126.825 157.885 C 127.308 158.321 128.032 159.069 128.434 159.55 C 128.834 160.029 129.506 160.808 129.924 161.281 C 130.343 161.752 130.885 162.387 131.128 162.693 C 131.371 162.998 131.869 163.567 132.233 163.955 C 132.599 164.345 133.441 165.32 134.106 166.124 C 134.771 166.93 135.448 167.771 135.61 167.993 C 135.772 168.215 136.189 168.752 136.535 169.188 C 136.882 169.623 137.166 170.021 137.166 170.071 C 137.166 170.12 137.127 170.164 137.078 170.164 C 137.03 170.164 136.452 169.695 135.795 169.123 C 135.137 168.551 134.193 167.773 133.694 167.392 C 133.196 167.007 132.585 166.528 132.336 166.325 C 132.086 166.12 131.395 165.605 130.798 165.175 C 130.201 164.747 129.137 164.043 128.433 163.609 C 127.73 163.179 126.611 162.472 125.947 162.044 C 125.282 161.616 124.444 161.101 124.085 160.902 C 123.725 160.706 122.842 160.18 122.124 159.736 C 121.404 159.293 120.046 158.49 119.105 157.954 C 118.163 157.414 117.213 156.861 116.991 156.723 C 116.77 156.582 115.615 155.923 114.425 155.257 C 113.235 154.592 111.333 153.567 110.202 152.98 C 109.065 152.395 107.184 151.383 106.026 150.729 C 104.859 150.076 102.525 148.845 100.844 147.994 C 99.154 147.142 97.453 146.273 97.071 146.062 C 96.679 145.849 95.552 145.25 94.555 144.73 C 93.559 144.213 92.513 143.664 92.241 143.516 C 91.959 143.368 91.255 142.982 90.682 142.656 C 90.098 142.333 88.87 141.648 87.965 141.134 C 87.049 140.621 85.671 139.816 84.896 139.346 C 84.121 138.874 82.883 138.169 82.139 137.772 C 81.404 137.379 80.247 136.702 79.573 136.265 C 78.899 135.831 77.872 135.17 77.299 134.795 C 76.715 134.418 74.984 133.333 73.455 132.38 C 71.915 131.427 69.249 129.689 67.518 128.517 C 65.788 127.346 63.111 125.542 61.582 124.509 C 60.052 123.476 57.929 121.994 56.852 121.213 C 55.786 120.437 54.528 119.563 54.065 119.274 C 53.602 118.985 52.968 118.643 52.656 118.511 C 52.344 118.382 52.043 118.265 51.992 118.253 L 51.892 118.232 L 51.912 119.243 C 51.922 119.795 52.002 120.681 52.083 121.209 C 52.163 121.736 52.304 122.669 52.395 123.28 C 52.475 123.891 52.596 124.638 52.646 124.944 C 52.697 125.249 52.807 125.909 52.898 126.407 C 52.988 126.908 53.149 127.748 53.25 128.275 C 53.351 128.802 53.532 129.689 53.643 130.244 C 53.763 130.8 53.975 131.709 54.115 132.261 C 54.256 132.817 54.538 133.839 54.719 134.533 C 54.91 135.226 55.263 136.386 55.504 137.107 C 55.746 137.83 56.249 139.191 56.611 140.134 C 56.983 141.079 57.778 142.849 58.382 144.071 C 58.975 145.293 59.76 146.814 60.113 147.452 C 60.465 148.091 60.917 148.887 61.119 149.22 C 61.31 149.552 61.773 150.326 62.155 150.936 C 62.527 151.547 63.423 152.839 64.147 153.811 C 64.862 154.782 65.798 155.985 66.21 156.487 C 66.633 156.985 67.307 157.758 67.73 158.201 C 68.142 158.647 69.249 159.783 70.195 160.726 C 71.141 161.669 72.62 163.055 73.475 163.808 C 74.33 164.559 75.8 165.79 76.745 166.543 C 77.681 167.295 78.969 168.299 79.613 168.771 C 80.247 169.245 81.495 170.098 82.38 170.67 C 83.266 171.24 84.755 172.173 85.701 172.74 C 86.637 173.308 88.226 174.249 89.222 174.834 C 90.219 175.416 92.362 176.611 94.002 177.487 C 95.632 178.362 100.542 180.879 104.92 183.08 C 109.287 185.279 113.476 187.437 114.224 187.873 C 114.971 188.307 115.876 188.845 116.237 189.067 C 116.596 189.287 117.139 189.623 117.444 189.812 C 117.748 190.003 118.617 190.598 119.374 191.134 C 120.132 191.673 121.151 192.43 121.638 192.814 C 122.126 193.198 123.108 194.061 123.82 194.731 C 124.533 195.401 125.801 196.632 126.638 197.466 C 127.475 198.301 129.213 200.057 130.5 201.367 C 131.787 202.679 132.839 203.799 132.839 203.855 L 132.839 203.96 L 132.516 203.868 C 132.339 203.817 131.875 203.586 131.485 203.353 C 131.095 203.123 130.007 202.527 129.066 202.03 C 128.125 201.535 126.879 200.926 126.299 200.678 C 125.717 200.43 124.472 199.839 123.532 199.364 C 122.591 198.89 121.232 198.194 120.513 197.814 C 119.793 197.436 118.345 196.743 117.293 196.272 C 116.242 195.803 114.883 195.182 114.274 194.89 C 113.666 194.6 112.76 194.169 112.262 193.934 C 111.764 193.697 110.746 193.205 109.991 192.843 C 109.236 192.478 107.697 191.763 106.57 191.255 C 105.443 190.746 103.632 189.942 102.555 189.473 C 101.468 189 100.09 188.375 99.486 188.083 C 98.872 187.791 97.987 187.367 97.524 187.138 C 97.051 186.912 95.491 186.179 94.052 185.516 C 92.613 184.852 90.661 183.95 89.726 183.51 C 88.78 183.072 87.019 182.174 85.801 181.516 C 84.584 180.857 83.175 180.117 82.682 179.871 C 82.179 179.628 81.052 179.015 80.167 178.512 C 79.281 178.008 77.56 176.997 76.343 176.263 C 75.125 175.529 73.536 174.599 72.821 174.198 C 72.097 173.798 70.789 173.004 69.903 172.436 C 69.018 171.868 67.478 170.883 66.482 170.247 C 65.486 169.61 64.439 168.954 64.168 168.787 C 63.886 168.622 63.353 168.357 62.98 168.198 C 62.608 168.041 62.276 167.937 62.236 167.97 C 62.205 168.007 62.246 168.25 62.336 168.518 C 62.417 168.783 62.538 169.321 62.608 169.708 C 62.668 170.096 62.779 170.708 62.86 171.072 C 62.94 171.432 63.091 172.181 63.202 172.736 C 63.322 173.292 63.473 173.994 63.554 174.301 C 63.644 174.606 63.866 175.629 64.067 176.572 C 64.258 177.516 64.58 178.81 64.781 179.448 C 64.983 180.086 65.345 181.177 65.576 181.871 C 65.818 182.564 66.11 183.382 66.23 183.688 C 66.341 183.993 66.804 185.036 67.257 186.01 C 67.699 186.98 68.243 188.14 68.464 188.582 C 68.686 189.026 69.189 189.959 69.571 190.652 C 69.963 191.345 70.577 192.414 70.939 193.025 C 71.302 193.635 71.845 194.497 72.157 194.943 C 72.459 195.385 73.143 196.315 73.666 197.011 C 74.19 197.705 75.226 199.044 75.971 199.988 L 77.329 201.704 L 79.15 203.507 C 80.146 204.498 81.545 205.79 82.259 206.382 C 82.974 206.974 84.252 207.986 85.097 208.631 C 85.952 209.276 87.472 210.367 88.488 211.061 C 89.494 211.752 90.822 212.613 91.436 212.976 C 92.04 213.337 93.418 214.134 94.505 214.746 C 95.582 215.357 97.232 216.263 98.178 216.758 C 99.114 217.255 100.542 217.96 101.347 218.329 C 102.142 218.696 103.169 219.155 103.611 219.352 C 104.054 219.547 105.362 220.09 106.529 220.561 C 107.697 221.029 109.508 221.713 110.554 222.074 C 111.604 222.436 113.097 222.959 113.872 223.237 C 114.647 223.516 116.05 223.992 116.991 224.297 C 117.932 224.603 119.539 225.145 120.563 225.499 C 121.587 225.853 123.24 226.383 124.236 226.675 C 125.232 226.967 126.726 227.411 127.556 227.663 C 128.387 227.917 129.292 228.216 129.569 228.327 C 129.846 228.442 130.219 228.642 130.399 228.775 C 130.579 228.909 130.787 229.139 130.863 229.289 C 130.938 229.438 131.215 230.335 131.477 231.277 C 131.738 232.22 132.157 233.585 132.406 234.306 C 132.656 235.027 132.881 235.712 132.908 235.826 C 132.935 235.94 132.887 236.09 132.802 236.162 L 132.648 236.287 L 131.813 236.033 C 131.353 235.889 129.71 235.366 128.16 234.871 C 126.611 234.375 124.528 233.735 123.532 233.449 C 122.535 233.165 119.275 232.119 116.287 231.126 C 113.298 230.131 110.424 229.183 109.9 229.019 C 109.367 228.851 107.677 228.277 106.127 227.742 C 104.577 227.208 102.344 226.388 101.176 225.92 C 99.999 225.456 98.238 224.692 97.252 224.228 C 96.266 223.761 94.888 223.119 94.203 222.799 C 93.509 222.477 92.553 222.012 92.09 221.762 C 91.617 221.511 90.671 221.018 89.997 220.665 C 89.313 220.312 88.699 220.023 88.609 220.023 C 88.528 220.023 88.468 220.066 88.468 220.119 C 88.468 220.174 88.649 220.481 88.87 220.801 C 89.102 221.123 89.645 222.126 90.078 223.031 C 90.521 223.935 90.883 224.696 90.883 224.723 C 90.883 224.751 91.195 225.413 91.587 226.197 C 91.98 226.983 92.754 228.424 93.318 229.4 C 93.871 230.377 94.807 231.903 95.391 232.792 C 95.964 233.68 96.83 234.927 97.302 235.563 C 97.775 236.199 98.641 237.291 99.224 237.986 C 99.798 238.681 100.784 239.818 101.398 240.512 C 102.012 241.208 103.491 242.712 104.678 243.855 C 105.855 244.999 107.103 246.186 107.435 246.491 C 107.767 246.796 108.311 247.268 108.643 247.542 C 108.975 247.816 110.081 248.7 111.105 249.508 C 112.128 250.314 113.523 251.367 114.203 251.843 C 114.882 252.323 115.992 253.059 116.668 253.481 C 117.343 253.904 118.259 254.483 118.702 254.768 C 119.144 255.055 120.389 255.803 121.469 256.434 C 122.548 257.064 124.585 258.146 125.997 258.843 C 127.408 259.542 128.902 260.248 129.317 260.418 C 129.732 260.584 130.752 260.96 131.584 261.251 C 132.417 261.542 133.191 261.839 133.306 261.909 C 133.42 261.983 133.567 262.126 133.631 262.231 C 133.696 262.334 133.946 263.294 134.187 264.361 C 134.429 265.427 135.021 267.822 135.504 269.683 C 135.986 271.542 136.653 274.04 136.984 275.233 C 137.316 276.427 137.761 278.039 137.972 278.817 C 138.183 279.593 138.568 281.024 138.826 281.996 C 139.085 282.968 139.523 284.558 139.801 285.53 C 140.079 286.5 140.39 287.614 140.492 288.002 C 140.595 288.39 140.818 289.185 140.988 289.768 C 141.158 290.351 141.617 291.986 142.011 293.402 C 142.403 294.816 142.805 296.27 142.902 296.631 C 143 296.993 143.218 297.764 143.386 298.348 C 143.555 298.929 143.853 299.974 144.049 300.67 C 144.246 301.362 144.628 302.794 144.9 303.849 C 145.171 304.902 145.65 306.719 145.965 307.886 C 146.279 309.051 146.785 310.913 147.09 312.024 C 147.394 313.133 147.818 314.68 148.03 315.455 C 148.242 316.234 148.718 317.959 149.088 319.292 C 149.457 320.623 149.864 322.099 149.994 322.57 C 150.124 323.043 150.399 324.041 150.604 324.793 C 150.81 325.54 151.262 327.152 151.608 328.374 C 151.953 329.595 152.564 331.754 152.965 333.168 C 153.364 334.585 153.747 335.947 153.816 336.197 C 153.884 336.447 154.147 337.355 154.398 338.217 C 154.651 339.077 155.023 340.417 155.226 341.193 C 155.429 341.971 155.769 343.219 155.981 343.97 C 156.194 344.719 156.533 345.967 156.734 346.746 C 156.935 347.521 157.389 349.046 157.742 350.134 C 158.095 351.22 158.598 352.601 158.86 353.201 C 159.122 353.801 159.517 354.563 159.737 354.894 C 159.959 355.226 160.393 355.774 160.702 356.11 C 161.011 356.446 161.737 357.076 162.314 357.506 C 162.892 357.937 163.851 358.543 164.445 358.852 C 165.038 359.162 165.879 359.511 166.312 359.624 L 167.101 359.832 L 170.306 359.928 C 172.074 359.981 181.794 360.011 191.974 359.996 L 210.435 359.968 L 210.719 359.649 L 211.002 359.33 L 211.424 357.983 C 211.656 357.242 212.178 355.773 212.583 354.718 C 212.989 353.663 213.794 351.621 214.373 350.177 C 214.952 348.732 215.729 346.716 216.099 345.693 C 216.47 344.67 216.911 343.49 217.079 343.07 C 217.248 342.647 217.738 341.372 218.17 340.234 C 218.601 339.097 219.325 337.188 219.778 335.995 C 220.229 334.803 220.885 333.054 221.234 332.11 C 221.582 331.167 222.531 328.689 223.343 326.61 C 224.155 324.526 225.093 322.12 225.428 321.259 C 225.762 320.398 226.229 319.172 226.464 318.533 C 226.699 317.895 227.174 316.601 227.52 315.659 C 227.864 314.715 228.349 313.372 228.596 312.68 C 228.844 311.986 229.477 310.309 230.002 308.955 C 230.528 307.599 231.276 305.624 231.664 304.563 C 232.052 303.504 232.575 302.092 232.825 301.426 C 233.076 300.76 233.59 299.396 233.967 298.397 C 234.345 297.399 235.136 295.309 235.725 293.756 C 236.315 292.201 237.173 289.884 237.632 288.608 C 238.092 287.331 238.657 285.811 238.89 285.231 C 239.122 284.649 239.538 283.559 239.813 282.808 C 240.088 282.056 240.557 280.828 240.854 280.078 C 241.152 279.33 241.912 277.353 242.546 275.689 C 243.179 274.022 243.813 272.343 243.955 271.952 C 244.097 271.565 244.325 270.929 244.463 270.54 C 244.6 270.152 244.947 269.244 245.234 268.521 C 245.52 267.801 246.063 266.574 246.44 265.795 C 246.818 265.02 247.316 264.089 247.548 263.726 C 247.78 263.366 248.18 262.853 248.438 262.584 C 248.695 262.316 249.088 262 249.309 261.882 L 249.712 261.669 L 250.472 261.665 L 251.234 261.661 L 251.529 261.849 C 251.692 261.955 251.953 262.156 252.11 262.303 C 252.266 262.448 252.688 263.056 253.048 263.654 C 253.409 264.253 253.898 265.161 254.136 265.673 C 254.375 266.186 254.804 267.195 255.091 267.915 C 255.379 268.639 255.975 270.247 256.418 271.492 C 256.86 272.736 257.472 274.392 257.777 275.176 C 258.081 275.957 258.462 276.937 258.622 277.353 C 258.782 277.768 259.349 279.29 259.884 280.734 C 260.418 282.178 261.139 284.085 261.487 284.973 C 261.834 285.862 262.493 287.589 262.95 288.81 C 263.406 290.032 263.935 291.438 264.124 291.938 C 264.313 292.439 264.621 293.255 264.807 293.756 C 264.994 294.255 265.288 295.026 265.461 295.471 C 265.634 295.915 266.153 297.3 266.615 298.55 C 267.077 299.799 267.681 301.411 267.956 302.132 C 268.23 302.855 268.682 304.013 268.96 304.706 C 269.237 305.399 269.579 306.264 269.717 306.624 C 269.857 306.984 270.475 308.599 271.092 310.207 C 271.709 311.817 272.501 313.884 272.853 314.8 C 273.205 315.716 273.726 317.077 274.012 317.828 C 274.297 318.577 274.84 320.008 275.218 321.007 C 275.598 322.007 276.314 323.914 276.811 325.246 C 277.308 326.579 278.106 328.667 278.583 329.888 C 279.061 331.11 279.717 332.79 280.04 333.624 C 280.364 334.455 280.811 335.614 281.033 336.197 C 281.256 336.78 281.812 338.257 282.269 339.477 C 282.727 340.699 283.231 342.037 283.391 342.457 C 283.551 342.871 283.841 343.644 284.035 344.17 C 284.229 344.699 284.654 345.879 284.978 346.795 C 285.302 347.711 285.755 348.961 285.984 349.572 C 286.213 350.182 286.629 351.318 286.908 352.093 C 287.186 352.872 287.71 354.326 288.071 355.324 C 288.432 356.323 288.929 357.64 289.176 358.25 C 289.423 358.861 289.735 359.474 289.87 359.613 L 290.116 359.867 L 297.987 359.945 C 302.317 359.986 311.745 360.006 318.94 359.988 L 332.021 359.956 L 333.019 359.684 C 333.568 359.537 334.306 359.279 334.66 359.112 C 335.013 358.947 335.684 358.56 336.152 358.255 C 336.619 357.949 337.392 357.324 337.869 356.866 C 338.346 356.406 339.021 355.649 339.37 355.182 C 339.722 354.712 340.323 353.687 340.724 352.874 C 341.121 352.069 341.729 350.703 342.075 349.834 C 342.421 348.968 342.933 347.554 343.214 346.695 C 343.495 345.835 343.958 344.386 344.246 343.475 C 344.533 342.564 345.032 340.907 345.354 339.79 C 345.677 338.673 346.129 337.171 346.358 336.45 C 346.588 335.728 347.091 334.002 347.475 332.614 C 347.86 331.227 348.467 329.069 348.825 327.822 C 349.184 326.571 349.722 324.685 350.021 323.631 C 350.321 322.575 350.906 320.534 351.323 319.09 C 351.741 317.646 352.316 315.602 352.603 314.547 C 352.89 313.493 353.19 312.426 353.27 312.177 C 353.35 311.93 353.642 310.885 353.92 309.857 C 354.198 308.826 354.695 307.031 355.025 305.868 C 355.356 304.701 355.944 302.634 356.333 301.275 C 356.722 299.914 357.284 297.961 357.581 296.934 C 357.877 295.907 358.445 293.863 358.842 292.391 C 359.239 290.922 359.802 288.854 360.095 287.799 C 360.387 286.745 361.242 283.669 361.995 280.966 C 362.748 278.261 363.52 275.401 363.714 274.607 C 363.906 273.815 364.286 272.302 364.56 271.247 C 364.833 270.193 365.29 268.445 365.576 267.363 C 365.861 266.282 366.16 265.049 366.24 264.622 C 366.321 264.197 366.478 263.585 366.588 263.262 C 366.699 262.938 366.909 262.55 367.055 262.396 C 367.207 262.237 367.604 262.025 367.984 261.897 C 368.348 261.777 369.281 261.386 370.056 261.03 C 370.831 260.67 371.758 260.226 372.118 260.037 C 372.478 259.852 373.746 259.223 374.936 258.642 C 376.125 258.06 378.281 256.907 379.725 256.079 C 381.169 255.253 382.634 254.397 382.98 254.18 C 383.325 253.962 384.168 253.415 384.853 252.959 C 385.538 252.506 386.248 252.025 386.429 251.894 C 386.61 251.759 387.37 251.196 388.117 250.643 C 388.864 250.088 390.019 249.232 390.683 248.74 C 391.347 248.25 392.657 247.185 393.594 246.376 C 394.532 245.567 395.755 244.482 396.311 243.969 C 396.869 243.455 397.709 242.606 398.18 242.087 C 398.65 241.569 399.578 240.535 400.242 239.793 C 400.906 239.05 401.859 237.944 402.36 237.333 C 402.862 236.723 403.59 235.791 403.978 235.264 C 404.368 234.736 404.983 233.873 405.346 233.346 C 405.708 232.818 406.386 231.775 406.852 231.024 C 407.319 230.275 407.93 229.275 408.211 228.805 C 408.49 228.331 409.005 227.423 409.353 226.786 C 409.701 226.146 410.093 225.404 410.225 225.137 C 410.358 224.866 410.574 224.475 410.707 224.261 C 410.84 224.05 411.2 223.309 411.507 222.613 C 411.814 221.917 412.065 221.248 412.065 221.126 L 412.065 220.905 L 411.688 220.966 C 411.481 220.999 410.699 221.34 409.952 221.726 C 409.205 222.108 407.915 222.696 407.085 223.029 C 406.255 223.361 405.123 223.839 404.569 224.084 C 404.016 224.333 403.065 224.719 402.456 224.942 C 401.847 225.167 400.828 225.54 400.192 225.773 C 399.555 226.004 398.468 226.416 397.777 226.686 C 397.085 226.957 395.75 227.433 394.809 227.744 C 393.868 228.056 392.374 228.539 391.488 228.817 C 390.603 229.095 389.402 229.473 388.822 229.661 C 388.24 229.844 385.954 230.587 383.74 231.31 C 381.527 232.033 379.602 232.656 379.464 232.691 C 379.325 232.728 378.148 233.092 376.848 233.498 C 375.547 233.909 373.578 234.517 372.471 234.853 C 371.364 235.189 370.028 235.57 369.502 235.701 C 368.976 235.831 368.402 236.015 368.224 236.105 C 368.047 236.197 367.832 236.272 367.746 236.272 L 367.591 236.272 L 367.593 235.895 C 367.594 235.685 367.689 235.311 367.804 235.062 C 367.92 234.813 368.146 234.223 368.309 233.75 C 368.472 233.279 368.853 232.082 369.156 231.091 C 369.46 230.102 369.815 229.081 369.946 228.822 C 370.078 228.562 370.269 228.273 370.372 228.18 C 370.474 228.089 370.876 227.922 371.263 227.813 C 371.651 227.703 372.082 227.568 372.222 227.514 C 372.362 227.459 373.291 227.201 374.285 226.943 C 375.279 226.683 377.089 226.174 378.307 225.812 C 379.524 225.452 381.267 224.91 382.181 224.612 C 383.093 224.316 385.018 223.665 386.457 223.166 C 387.896 222.669 389.617 222.061 390.281 221.814 C 390.945 221.567 392.711 220.887 394.205 220.303 C 395.699 219.718 397.804 218.852 398.884 218.379 C 399.963 217.904 401.48 217.215 402.255 216.844 C 403.03 216.471 404.796 215.512 406.179 214.71 C 407.563 213.906 409.124 212.982 409.651 212.655 C 410.176 212.328 410.742 211.972 410.908 211.864 C 411.074 211.759 411.754 211.32 412.418 210.888 C 413.082 210.458 414.123 209.74 414.732 209.294 C 415.341 208.845 416.609 207.866 417.549 207.116 C 418.49 206.364 420.049 205.023 421.013 204.13 C 421.977 203.24 423.34 201.868 424.043 201.078 C 424.745 200.29 425.771 199.086 426.325 198.404 C 426.878 197.722 427.914 196.335 428.628 195.328 C 429.341 194.32 430.242 192.978 430.628 192.35 C 431.015 191.722 431.826 190.229 432.429 189.037 C 433.033 187.844 433.752 186.369 434.026 185.759 C 434.301 185.149 434.752 184.087 435.029 183.398 C 435.307 182.711 435.824 181.282 436.18 180.227 C 436.535 179.167 437.003 177.618 437.219 176.782 C 437.435 175.945 437.726 174.759 437.864 174.145 C 438.003 173.532 438.184 172.571 438.268 172.008 C 438.352 171.447 438.528 170.585 438.661 170.094 C 438.793 169.604 438.954 168.866 439.019 168.453 C 439.087 168.034 439.1 167.665 439.051 167.618 C 439.002 167.568 438.721 167.732 438.409 167.989 C 438.104 168.239 437.82 168.447 437.776 168.447 C 437.734 168.447 437.263 168.736 436.73 169.088 C 436.198 169.44 435.128 170.131 434.353 170.62 C 433.578 171.11 432.469 171.789 431.888 172.129 C 431.306 172.471 430.424 173.011 429.926 173.331 C 429.428 173.649 428.454 174.232 427.763 174.621 C 427.07 175.014 426.165 175.515 425.75 175.74 C 425.335 175.965 424.497 176.429 423.889 176.776 C 423.28 177.12 422.306 177.652 421.725 177.957 C 421.144 178.262 420.283 178.749 419.813 179.038 C 419.342 179.327 416.943 180.574 414.48 181.81 C 412.017 183.045 409.346 184.402 408.544 184.825 C 407.741 185.249 405.93 186.124 404.519 186.77 C 403.107 187.416 401.772 188.01 401.55 188.09 C 401.329 188.172 400.695 188.445 400.142 188.698 C 399.588 188.953 398.478 189.469 397.677 189.844 C 396.874 190.22 395.448 190.847 394.507 191.239 C 393.566 191.629 392.208 192.229 391.488 192.57 C 390.769 192.914 389.967 193.278 389.707 193.384 C 389.447 193.487 388.791 193.794 388.248 194.067 C 387.706 194.341 386.673 194.821 385.954 195.141 C 385.235 195.46 384.42 195.822 384.143 195.946 C 383.866 196.074 382.937 196.483 382.08 196.857 C 381.222 197.233 379.773 197.904 378.86 198.344 C 377.947 198.789 376.521 199.516 375.691 199.96 C 374.86 200.407 373.479 201.16 372.622 201.634 C 371.763 202.106 370.718 202.71 370.296 202.977 C 369.876 203.241 369.321 203.561 369.064 203.687 L 368.597 203.914 L 368.471 203.789 L 368.346 203.661 L 368.585 203.238 C 368.716 203.004 369.02 202.519 369.259 202.16 C 369.497 201.796 369.995 201.138 370.365 200.695 C 370.734 200.25 371.607 199.252 372.307 198.475 C 373.005 197.701 373.826 196.815 374.131 196.508 C 374.436 196.201 375.461 195.219 376.411 194.324 C 377.361 193.43 378.403 192.495 378.725 192.251 C 379.048 192.004 379.833 191.458 380.47 191.04 C 381.106 190.622 382.193 189.936 382.885 189.521 C 383.576 189.106 384.505 188.57 384.948 188.332 C 385.391 188.091 386.364 187.556 387.111 187.137 C 387.858 186.719 390.552 185.345 393.098 184.086 C 395.644 182.826 398.859 181.209 400.242 180.489 C 401.626 179.773 403.323 178.92 404.016 178.594 C 404.707 178.269 406.156 177.539 407.236 176.975 C 408.314 176.409 409.379 175.842 409.6 175.714 C 409.822 175.585 410.501 175.212 411.11 174.884 C 411.718 174.556 412.886 173.893 413.704 173.41 C 414.523 172.929 416.265 171.838 417.578 170.989 C 418.891 170.14 420.355 169.162 420.833 168.819 C 421.311 168.474 421.876 168.06 422.09 167.893 C 422.305 167.729 423.023 167.162 423.687 166.636 C 424.351 166.11 425.302 165.314 425.8 164.865 C 426.298 164.417 427.114 163.704 427.612 163.28 C 428.11 162.858 429.38 161.632 430.433 160.558 C 431.488 159.485 432.922 157.948 433.623 157.143 C 434.323 156.337 435.521 154.9 436.286 153.945 C 437.051 152.991 437.97 151.728 438.329 151.14 C 438.688 150.549 439.315 149.514 439.722 148.836 C 440.129 148.157 440.919 146.787 441.476 145.788 C 442.035 144.787 442.758 143.405 443.086 142.714 C 443.413 142.02 443.898 140.909 444.163 140.24 C 444.428 139.571 444.829 138.502 445.053 137.865 C 445.279 137.226 445.621 136.203 445.814 135.593 C 446.007 134.982 446.323 133.914 446.515 133.22 C 446.709 132.527 447.002 131.277 447.171 130.444 C 447.338 129.614 447.615 128.115 447.787 127.113 C 447.959 126.115 448.166 124.709 448.246 123.986 C 448.326 123.264 448.437 122.266 448.494 121.766 C 448.55 121.265 448.637 120.606 448.687 120.301 C 448.736 119.996 448.78 119.465 448.784 119.123 C 448.789 118.781 448.765 118.429 448.731 118.342 C 448.698 118.253 448.605 118.181 448.525 118.181 C 448.445 118.181 448.27 118.302 448.135 118.446 L 447.891 118.713 L 447.613 118.713 C 447.461 118.713 447.109 118.84 446.831 118.999 C 446.554 119.156 445.84 119.712 445.246 120.234 C 444.65 120.756 443.744 121.471 443.233 121.822 C 442.721 122.176 441.917 122.72 441.447 123.032 C 440.976 123.345 440.206 123.855 439.737 124.165 C 439.266 124.476 438.338 125.097 437.674 125.544 C 437.01 125.992 435.818 126.8 435.027 127.342 C 434.236 127.883 432.799 128.87 431.834 129.536 C 430.868 130.205 429.75 130.971 429.348 131.247 C 428.947 131.521 428.368 131.911 428.064 132.113 C 427.759 132.317 427.013 132.778 426.404 133.144 C 425.795 133.507 424.731 134.152 424.039 134.571 C 423.347 134.991 422.532 135.479 422.228 135.654 C 421.923 135.831 421.041 136.35 420.266 136.807 C 419.491 137.266 418.2 138.026 417.398 138.497 C 416.595 138.968 415.509 139.6 414.984 139.902 C 414.457 140.205 413.665 140.654 413.223 140.898 C 412.78 141.141 412.237 141.445 412.015 141.573 C 411.794 141.698 411.296 141.965 410.908 142.165 C 410.521 142.365 409.909 142.702 409.55 142.91 C 409.19 143.118 407.719 143.889 406.28 144.629 C 404.841 145.366 403.12 146.275 402.456 146.648 C 401.792 147.019 400.705 147.619 400.041 147.979 C 399.377 148.337 397.623 149.297 396.145 150.112 C 394.666 150.925 393.15 151.776 392.774 152.008 C 392.399 152.239 391.232 152.882 390.18 153.436 C 389.129 153.99 387.43 154.877 386.407 155.406 C 385.382 155.937 383.866 156.777 383.036 157.272 C 382.206 157.77 381.164 158.414 380.722 158.707 C 380.279 158.999 379.002 159.823 377.884 160.536 C 376.767 161.25 375.182 162.258 374.362 162.772 C 373.543 163.288 372.326 164.039 371.656 164.44 C 370.986 164.838 369.469 165.838 368.285 166.662 C 367.1 167.485 365.791 168.403 365.377 168.701 C 364.961 169 364.315 169.458 363.941 169.721 L 363.261 170.2 L 363.161 170.098 L 363.06 169.999 L 363.546 169.298 C 363.814 168.914 364.363 168.122 364.767 167.541 C 365.171 166.957 365.848 166.027 366.272 165.471 C 366.696 164.914 368.022 163.325 369.218 161.937 C 370.464 160.489 372.265 158.552 373.441 157.392 C 374.568 156.28 375.964 154.962 376.546 154.462 C 377.126 153.964 377.987 153.264 378.458 152.905 C 378.928 152.55 379.743 151.912 380.269 151.489 C 380.794 151.067 381.836 150.263 382.583 149.706 C 383.33 149.145 384.661 148.203 385.539 147.613 C 386.419 147.022 387.973 146.004 388.992 145.355 C 390.011 144.704 390.99 144.083 391.167 143.976 C 391.343 143.868 392.53 143.093 393.803 142.251 C 395.075 141.41 396.57 140.425 397.123 140.06 C 397.677 139.696 398.423 139.194 398.783 138.945 C 399.143 138.696 400.841 137.562 402.557 136.421 C 404.272 135.281 405.987 134.115 406.366 133.828 C 406.746 133.546 407.448 133.042 407.926 132.711 C 408.404 132.382 409.088 131.903 409.445 131.648 C 409.803 131.397 410.776 130.68 411.609 130.064 C 412.441 129.445 413.778 128.418 414.581 127.781 C 415.383 127.144 416.674 126.07 417.449 125.396 C 418.224 124.723 419.356 123.77 419.964 123.283 C 420.573 122.793 421.59 121.934 422.226 121.374 C 422.861 120.812 424.63 119.139 426.158 117.658 C 427.685 116.178 429.432 114.43 430.042 113.773 C 430.65 113.118 431.657 112.017 432.277 111.329 C 432.898 110.639 433.732 109.683 434.131 109.202 C 434.529 108.72 435.333 107.717 435.917 106.97 C 436.501 106.226 437.298 105.16 437.69 104.608 C 438.08 104.051 438.809 102.983 439.308 102.235 C 439.806 101.484 440.588 100.257 441.045 99.509 C 441.501 98.758 442.294 97.375 442.807 96.431 C 443.319 95.488 443.965 94.261 444.24 93.707 C 444.517 93.15 445.242 91.493 445.851 90.022 C 446.461 88.55 447.118 86.894 447.312 86.338 C 447.506 85.783 447.759 85.031 447.876 84.672 C 447.992 84.311 448.202 83.584 448.342 83.057 C 448.483 82.529 448.71 81.575 448.848 80.94 C 448.986 80.304 449.167 79.436 449.25 79.022 C 449.334 78.608 449.489 77.559 449.594 76.7 C 449.701 75.842 449.835 74.611 449.893 73.975 C 449.952 73.339 449.999 71.523 450 69.938 C 450 68.353 449.954 66.334 449.896 65.446 C 449.84 64.558 449.724 63.217 449.64 62.468 C 449.554 61.722 449.42 60.673 449.34 60.139 C 449.26 59.612 449.195 58.966 449.195 58.704 C 449.195 58.441 449.104 57.665 448.995 56.977 C 448.885 56.282 448.75 55.606 448.696 55.466 C 448.641 55.313 448.57 55.202 448.539 55.202 C 448.507 55.202 447.927 55.756 447.251 56.434 C 446.574 57.12 445.525 58.221 444.92 58.886 C 444.314 59.552 442.435 61.499 440.746 63.207 C 439.056 64.923 436.587 67.356 435.259 68.617 C 433.931 69.878 432.213 71.483 431.442 72.168 C 430.671 72.856 429.423 73.945 428.667 74.581 C 427.911 75.217 427.03 75.944 426.71 76.197 C 426.389 76.447 425.849 76.873 425.511 77.156 C 425.171 77.438 424.776 77.751 424.631 77.862 C 424.486 77.972 423.786 78.538 423.076 79.113 C 422.364 79.698 421.331 80.516 420.777 80.93 C 420.225 81.352 419.476 81.899 419.114 82.151 C 418.751 82.404 417.481 83.269 416.292 84.073 C 415.101 84.879 413.833 85.745 413.474 85.998 C 413.114 86.249 412.208 86.884 411.462 87.402 C 410.714 87.923 409.175 88.978 408.041 89.75 C 406.906 90.52 405.411 91.527 404.72 91.983 C 404.028 92.441 402.941 93.146 402.305 93.553 C 401.668 93.96 400.65 94.618 400.041 95.014 C 399.432 95.411 398.469 96.03 397.901 96.386 C 397.332 96.744 396.048 97.574 395.047 98.23 C 394.046 98.888 392.837 99.662 392.358 99.953 C 391.88 100.245 391.217 100.654 390.885 100.863 C 390.552 101.073 389.251 101.866 387.995 102.622 C 386.737 103.381 384.903 104.518 383.919 105.151 C 382.935 105.788 381.406 106.78 380.52 107.362 C 379.635 107.942 378.095 108.965 377.099 109.632 C 376.103 110.301 374.926 111.106 374.483 111.421 C 374.04 111.737 372.931 112.533 372.018 113.189 C 371.104 113.847 369.655 114.896 368.798 115.524 C 367.94 116.155 366.672 117.086 365.981 117.595 C 365.288 118.106 364.066 119.047 363.263 119.689 C 362.461 120.331 361.062 121.47 360.157 122.218 C 359.25 122.969 358.051 123.961 357.49 124.427 C 356.93 124.889 355.414 126.274 354.123 127.501 C 352.831 128.726 351.292 130.258 350.702 130.903 C 350.111 131.548 349.154 132.618 348.573 133.279 C 347.991 133.94 347.287 134.729 347.006 135.035 C 346.726 135.341 346.021 136.183 345.441 136.906 C 344.86 137.627 344.025 138.693 343.584 139.276 C 343.143 139.859 342.44 140.812 342.021 141.397 C 341.602 141.979 341.01 142.841 340.705 143.315 C 340.4 143.785 339.822 144.694 339.42 145.333 C 339.019 145.971 338.567 146.676 338.416 146.896 C 338.265 147.119 337.847 147.8 337.484 148.411 C 337.123 149.022 336.511 150.113 336.125 150.834 C 335.739 151.556 335.137 152.735 334.789 153.458 C 334.44 154.179 333.658 155.838 333.051 157.143 C 332.443 158.447 331.789 159.878 331.596 160.321 C 331.403 160.766 331.043 161.629 330.795 162.24 C 330.548 162.851 330.095 164.054 329.787 164.913 C 329.48 165.774 328.943 167.34 328.595 168.396 C 328.247 169.45 327.668 171.268 327.306 172.433 C 326.945 173.6 326.492 175.121 326.299 175.814 C 326.107 176.507 325.812 177.599 325.644 178.237 C 325.477 178.874 324.912 181.125 324.388 183.232 C 323.865 185.342 323.248 187.908 323.019 188.936 C 322.79 189.964 322.335 191.96 322.009 193.378 C 321.683 194.792 321.207 196.926 320.95 198.12 C 320.695 199.314 320.328 200.951 320.136 201.755 C 319.944 202.558 319.514 204.444 319.181 205.943 C 318.847 207.443 318.398 209.509 318.184 210.536 C 317.969 211.561 317.632 213.176 317.433 214.119 C 317.236 215.063 316.869 216.673 316.618 217.703 C 316.368 218.729 315.988 220.363 315.776 221.334 C 315.564 222.307 315.247 223.805 315.072 224.666 C 314.897 225.526 314.615 226.889 314.447 227.694 C 314.279 228.499 313.829 230.544 313.449 232.235 C 313.067 233.93 312.641 235.837 312.501 236.476 C 312.36 237.112 312 238.75 311.699 240.109 C 311.398 241.467 310.926 243.512 310.649 244.652 C 310.373 245.79 309.897 247.833 309.591 249.193 C 309.286 250.552 308.879 252.346 308.686 253.179 C 308.493 254.014 308.134 255.558 307.887 256.612 C 307.641 257.668 307.18 259.641 306.864 261.003 C 306.547 262.362 306.178 263.859 306.042 264.33 C 305.906 264.802 305.434 266.641 304.991 268.418 C 304.549 270.197 303.983 272.423 303.735 273.367 C 303.486 274.31 303.099 275.696 302.874 276.445 C 302.651 277.195 302.403 278.012 302.326 278.261 C 302.249 278.512 302.094 278.866 301.982 279.052 L 301.778 279.385 L 301.605 279.355 C 301.507 279.337 301.305 279.057 301.144 278.717 C 300.985 278.384 300.457 276.907 299.97 275.436 C 299.483 273.965 298.943 272.375 298.769 271.903 C 298.596 271.431 298.007 269.773 297.462 268.218 C 296.917 266.665 295.903 263.781 295.211 261.809 C 294.518 259.84 293.816 257.862 293.652 257.42 C 293.488 256.975 293.14 256.066 292.879 255.4 C 292.617 254.735 292.086 253.28 291.697 252.171 C 291.31 251.061 290.887 249.834 290.759 249.446 C 290.632 249.056 290.255 247.967 289.924 247.024 C 289.592 246.081 288.916 244.171 288.42 242.784 C 287.924 241.395 287.223 239.443 286.862 238.445 C 286.502 237.444 285.906 235.81 285.538 234.811 C 285.171 233.81 284.694 232.494 284.48 231.883 C 284.265 231.272 283.774 229.886 283.388 228.805 C 283.002 227.721 282.246 225.657 281.707 224.212 C 281.168 222.768 280.556 221.09 280.348 220.479 C 280.139 219.868 279.583 218.253 279.112 216.894 C 278.643 215.533 277.693 212.9 277.001 211.041 C 276.31 209.181 275.58 207.226 275.377 206.699 C 275.175 206.173 274.742 205.016 274.416 204.126 C 274.089 203.238 273.528 201.671 273.17 200.646 C 272.811 199.617 272.194 197.937 271.799 196.91 C 271.406 195.882 270.831 194.362 270.524 193.529 C 270.216 192.697 269.786 191.515 269.566 190.906 C 269.348 190.295 268.941 189.135 268.662 188.331 C 268.383 187.527 267.887 186.14 267.559 185.252 C 267.231 184.363 266.696 183.092 266.37 182.425 C 266.021 181.712 265.552 180.942 265.228 180.551 C 264.926 180.187 264.458 179.728 264.188 179.534 C 263.919 179.34 263.441 179.037 263.125 178.861 C 262.81 178.688 262.018 178.36 261.364 178.134 C 260.711 177.907 259.657 177.631 259.023 177.523 C 258.389 177.413 256.956 177.277 255.838 177.218 C 254.644 177.156 251.4 177.126 247.984 177.154 L 242.165 177.196 L 241.262 177.37 C 240.766 177.467 240.019 177.677 239.602 177.838 C 239.186 178 238.448 178.373 237.965 178.665 C 237.481 178.956 236.882 179.367 236.635 179.577 C 236.387 179.785 235.903 180.354 235.559 180.84 C 235.215 181.323 234.697 182.222 234.406 182.841 C 234.116 183.457 233.577 184.728 233.208 185.665 C 232.839 186.606 232.25 188.097 231.899 188.986 C 231.546 189.874 231.14 190.92 230.995 191.308 C 230.849 191.697 230.458 192.764 230.125 193.681 C 229.791 194.595 229.164 196.368 228.731 197.617 C 228.298 198.866 227.694 200.59 227.388 201.452 C 227.083 202.312 226.509 203.901 226.116 204.984 C 225.721 206.066 225.156 207.635 224.859 208.467 C 224.562 209.3 224.142 210.457 223.924 211.041 C 223.706 211.624 223.269 212.803 222.952 213.664 C 222.634 214.524 222.178 215.819 221.939 216.542 C 221.7 217.263 221.337 218.309 221.135 218.862 C 220.933 219.417 220.525 220.553 220.23 221.388 C 219.935 222.219 219.377 223.762 218.991 224.818 C 218.603 225.872 217.939 227.734 217.514 228.955 C 217.087 230.177 216.384 232.131 215.95 233.297 C 215.516 234.461 214.861 236.255 214.495 237.283 C 214.128 238.309 213.518 239.991 213.139 241.018 C 212.76 242.044 212.283 243.362 212.08 243.946 C 211.877 244.526 211.326 246.117 210.856 247.476 C 210.387 248.838 209.661 250.903 209.244 252.069 C 208.827 253.236 208.193 254.984 207.837 255.956 C 207.48 256.926 206.938 258.397 206.632 259.222 C 206.326 260.044 206.017 260.907 205.944 261.139 C 205.872 261.369 205.562 262.214 205.255 263.02 C 204.949 263.826 204.404 265.279 204.042 266.251 C 203.682 267.222 203.072 268.879 202.688 269.935 C 202.304 270.989 201.72 272.578 201.392 273.467 C 201.063 274.355 200.734 275.309 200.659 275.587 C 200.585 275.864 200.376 276.477 200.196 276.95 C 200.014 277.421 199.682 278.205 199.458 278.692 C 199.234 279.176 199.005 279.573 198.95 279.573 C 198.895 279.573 198.738 279.403 198.601 279.195 C 198.464 278.986 198.189 278.41 197.99 277.912 C 197.79 277.414 197.56 276.711 197.478 276.347 C 197.396 275.986 197.146 274.961 196.92 274.072 C 196.696 273.184 196.385 271.913 196.231 271.247 C 196.076 270.582 195.655 268.765 195.293 267.21 C 194.932 265.655 194.425 263.542 194.165 262.515 C 193.907 261.489 193.455 259.649 193.162 258.428 C 192.87 257.207 192.156 254.3 191.574 251.969 C 190.993 249.638 190.265 246.686 189.956 245.408 C 189.648 244.131 189.234 242.315 189.036 241.371 C 188.837 240.427 188.498 238.86 188.282 237.889 C 188.067 236.917 187.545 234.623 187.124 232.792 C 186.703 230.96 186.133 228.461 185.856 227.241 C 185.579 226.019 185.086 223.702 184.76 222.093 C 184.435 220.484 183.824 217.575 183.405 215.633 C 182.985 213.689 182.261 210.465 181.796 208.467 C 181.331 206.469 180.628 203.355 180.233 201.554 C 179.839 199.749 179.402 197.795 179.263 197.213 C 179.123 196.628 178.791 195.155 178.526 193.933 C 178.259 192.712 177.852 190.896 177.622 189.894 C 177.392 188.895 176.706 186.035 176.099 183.535 C 175.492 181.038 174.79 178.177 174.539 177.178 C 174.288 176.178 173.968 174.928 173.828 174.402 C 173.687 173.874 173.256 172.375 172.871 171.072 C 172.485 169.765 172.008 168.222 171.811 167.638 C 171.614 167.055 171.191 165.876 170.873 165.015 C 170.554 164.155 169.841 162.315 169.287 160.927 C 168.733 159.539 168.112 158.017 167.907 157.546 C 167.703 157.074 167.384 156.369 167.199 155.981 C 167.014 155.593 166.496 154.503 166.048 153.562 C 165.6 152.619 164.82 151.076 164.315 150.13 C 163.811 149.185 163.125 147.935 162.792 147.351 C 162.459 146.769 161.813 145.714 161.357 145.013 C 160.901 144.309 159.965 142.921 159.278 141.93 C 158.589 140.937 157.536 139.491 156.936 138.717 C 156.336 137.942 155.576 136.99 155.247 136.604 C 154.917 136.214 153.986 135.19 153.177 134.328 C 152.368 133.466 151.286 132.302 150.773 131.744 C 150.26 131.184 148.766 129.701 147.452 128.449 C 146.139 127.198 144.158 125.409 143.05 124.473 C 141.942 123.538 140.131 122.044 139.025 121.153 C 137.92 120.261 136.675 119.28 136.26 118.972 C 135.845 118.665 134.713 117.823 133.745 117.102 C 132.776 116.378 130.49 114.771 128.663 113.531 C 126.837 112.289 125.116 111.125 124.84 110.942 C 124.563 110.764 123.01 109.763 121.389 108.72 C 119.769 107.68 118.116 106.625 117.717 106.378 C 117.318 106.133 116.221 105.432 115.281 104.823 C 114.34 104.213 113.072 103.391 112.463 102.993 C 111.854 102.596 110.695 101.854 109.9 101.34 C 109.095 100.825 107.948 100.102 107.355 99.731 C 106.761 99.357 105.745 98.716 105.091 98.304 C 104.447 97.892 102.656 96.734 101.116 95.732 C 99.577 94.728 97.494 93.385 96.487 92.744 C 95.481 92.105 93.72 90.957 92.593 90.191 C 91.456 89.43 89.866 88.352 89.072 87.801 C 88.267 87.248 86.677 86.146 85.55 85.356 C 84.413 84.563 82.783 83.384 81.927 82.736 C 81.062 82.09 79.935 81.252 79.412 80.869 C 78.879 80.497 77.772 79.669 76.947 79.022 C 76.111 78.377 74.622 77.176 73.626 76.348 C 72.63 75.509 71.402 74.471 70.909 74.035 C 70.406 73.602 69.702 72.967 69.34 72.623 C 68.977 72.281 68.192 71.553 67.579 70.997 C 66.975 70.443 66.029 69.555 65.476 69.029 C 64.922 68.504 63.775 67.395 62.92 66.557 C 62.075 65.718 60.787 64.408 60.062 63.629 C 59.338 62.852 58.07 61.509 57.235 60.644 C 56.4 59.784 55.132 58.481 54.427 57.745 C 53.723 57.019 52.878 56.191 52.536 55.909 C 52.204 55.626 51.751 55.313 51.54 55.202 L 51.157 55 L 51.036 55.14" stroke="none" fill-rule="evenodd" style="stroke-width: 1; fill: url(&quot;#gradient-1&quot;); filter: url(&quot;#outline-filter-2&quot;) url(&quot;#drop-shadow-filter-1&quot;);"/>
  <text style="fill: url(&quot;#gradient-2&quot;); font-family: Arial, sans-serif; font-size: 119.692px; font-weight: 700; line-height: 191.506px; paint-order: fill; white-space: pre; filter: url(&quot;#drop-shadow-filter-0&quot;) url(&quot;#outline-filter-1&quot;);" transform="matrix(0.765431, 0, 0, 0.763846, -352.855286, -119.807785)" x="558.973" y="749.228">W-ILYAS</text>
</svg>